# File created by Blade
# Date/Time:  Wed Jan 21 18:02:19 2015
# Frame Rate: 120.000 fps
#------------------------------------------------------
:FULLY-SPECIFIED
:DEGREES
343
root 22.890855 35.718562 -23.911048 -175.090240 -1.998536 -179.596126
Spine -9.323259 3.445812 -0.612033
Head -1.941838 -6.571263 -1.171211
LeftShoulder -8.887941 -18.230675 -5.382516
LeftArm -15.736909 15.315589 -74.679903
LeftForeArm -2.699876 -0.000000 2.815537
LeftHand -1.495235 -0.000000 -0.318217
LeftHandThumb1 -26.253704 0.000000 33.147579
RightShoulder -6.842143 -15.100873 7.020402
RightArm 14.489218 -15.724798 66.895812
RightForeArm -17.081729 -0.000000 15.850382
RightHand -0.571629 -0.000000 1.787794
RightHandThumb1 -24.326973 -0.000000 -32.862282
LeftUpLeg -16.779538 -1.101895 -2.882625
LeftLeg 19.258808 -0.000000 -0.000000
LeftFoot -25.390027 26.741531 -8.617293
LeftToeBase 16.162993 -0.000000 -0.000000
RightUpLeg -5.495083 -7.227065 5.683954
RightLeg 5.407295 -0.000000 -0.000000
RightFoot -23.408285 -22.429561 15.711215
RightToeBase 25.435457 -0.000000 -0.000000
344
root 22.921755 35.742586 -23.848384 -175.196175 -1.966141 -179.757095
Spine -9.079527 3.402198 -0.835538
Head -1.908384 -6.565466 -1.071454
LeftShoulder -8.687303 -18.277711 -5.163181
LeftArm -15.334635 15.628283 -74.768489
LeftForeArm -2.877887 -0.000000 3.107914
LeftHand -1.461126 -0.000000 0.048657
LeftHandThumb1 -26.253704 0.000000 33.147579
RightShoulder -6.824858 -15.063764 7.038640
RightArm 14.729797 -16.000889 66.678988
RightForeArm -17.291659 -0.000000 15.920774
RightHand -0.399889 -0.000000 1.715269
RightHandThumb1 -24.326973 -0.000000 -32.862282
LeftUpLeg -16.838767 -0.869762 -3.091523
LeftLeg 19.804297 -0.000000 -0.000000
LeftFoot -25.684448 26.562638 -9.084696
LeftToeBase 16.128716 -0.000000 -0.000000
RightUpLeg -5.328575 -7.410399 5.542771
RightLeg 5.134593 -0.000000 -0.000000
RightFoot -23.321867 -21.988354 16.132268
RightToeBase 25.480364 -0.000000 -0.000000
345
root 22.949940 35.764287 -23.799056 -175.483035 -1.989593 -179.959801
Spine -8.613511 3.314775 -1.117003
Head -1.944260 -6.537615 -0.893450
LeftShoulder -8.455349 -18.409316 -4.942438
LeftArm -14.973464 15.927846 -74.834722
LeftForeArm -2.954113 -0.000000 3.405409
LeftHand -1.498719 -0.000000 0.076660
LeftHandThumb1 -26.253704 0.000000 33.147579
RightShoulder -6.876777 -14.997695 7.157236
RightArm 15.074616 -16.388483 66.335841
RightForeArm -16.973011 -0.000000 15.982387
RightHand -0.128863 0.000000 0.996297
RightHandThumb1 -24.326973 -0.000000 -32.862282
LeftUpLeg -16.670904 -0.648523 -3.340718
LeftLeg 20.323297 -0.000000 -0.000000
LeftFoot -25.963213 26.398485 -9.510614
LeftToeBase 16.365075 -0.000000 -0.000000
RightUpLeg -4.927876 -7.672536 5.333411
RightLeg 4.808065 -0.000000 -0.000000
RightFoot -23.266514 -21.646276 16.378996
RightToeBase 25.703917 -0.000000 -0.000000
346
root 22.974992 35.783905 -23.746303 -175.688651 -1.877463 -180.150220
Spine -8.264479 3.373428 -1.394211
Head -1.944338 -6.556836 -0.710222
LeftShoulder -8.243635 -18.582076 -4.718366
LeftArm -14.631181 16.391789 -74.915468
LeftForeArm -3.216161 -0.000000 3.591515
LeftHand -1.349889 -0.000000 0.211728
LeftHandThumb1 -26.253704 0.000000 33.147579
RightShoulder -6.940127 -14.935232 7.257882
RightArm 15.293773 -16.567237 66.109823
RightForeArm -17.719811 -0.000000 16.075527
RightHand -0.230500 -0.000000 1.685570
RightHandThumb1 -24.326973 -0.000000 -32.862282
LeftUpLeg -16.536064 -0.269967 -3.579840
LeftLeg 20.770779 -0.000000 -0.000000
LeftFoot -26.102800 26.310271 -9.832574
LeftToeBase 16.408224 -0.000000 -0.000000
RightUpLeg -4.673588 -7.896949 5.134931
RightLeg 4.575231 -0.000000 -0.000000
RightFoot -23.186993 -21.196514 16.685518
RightToeBase 25.827916 -0.000000 -0.000000
347
root 22.999933 35.801609 -23.698539 -175.887678 -1.878735 -180.327139
Spine -7.964118 3.332843 -1.646104
Head -1.850346 -6.611628 -0.598674
LeftShoulder -8.037015 -18.687652 -4.533155
LeftArm -14.273439 16.859579 -74.937106
LeftForeArm -3.363652 -0.000000 3.939714
LeftHand -1.512313 0.000000 0.246559
LeftHandThumb1 -26.253704 0.000000 33.147579
RightShoulder -7.036669 -14.871063 7.380627
RightArm 15.535512 -16.831449 65.850010
RightForeArm -17.914995 0.000000 16.200733
RightHand -0.350616 -0.000000 1.560842
RightHandThumb1 -24.326973 -0.000000 -32.862282
LeftUpLeg -16.373215 -0.006408 -3.798563
LeftLeg 21.187973 -0.000000 -0.000000
LeftFoot -26.395968 26.180105 -10.332842
LeftToeBase 16.615388 -0.000000 -0.000000
RightUpLeg -4.398635 -8.085548 4.953622
RightLeg 4.306225 -0.000000 -0.000000
RightFoot -23.129297 -20.948851 16.830044
RightToeBase 26.029838 -0.000000 -0.000000
348
root 23.019508 35.818604 -23.643689 -175.940449 -1.866686 -180.473767
Spine -7.868806 3.267614 -1.835017
Head -1.647669 -6.580526 -0.544789
LeftShoulder -7.844650 -18.830455 -4.397858
LeftArm -14.062838 17.290644 -74.939270
LeftForeArm -3.384912 -0.000000 4.291792
LeftHand -1.415055 0.000000 0.334368
LeftHandThumb1 -26.253704 0.000000 33.147579
RightShoulder -7.118306 -14.745537 7.474717
RightArm 15.620263 -16.981780 65.650183
RightForeArm -18.073679 -0.000000 16.382018
RightHand -0.578112 -0.000000 1.858471
RightHandThumb1 -24.326973 -0.000000 -32.862282
LeftUpLeg -16.395694 0.281981 -3.977710
LeftLeg 21.706424 -0.000000 -0.000000
LeftFoot -26.583920 26.028103 -10.634604
LeftToeBase 16.690688 -0.000000 -0.000000
RightUpLeg -4.286101 -8.131571 4.810582
RightLeg 4.044136 -0.000000 -0.000000
RightFoot -23.112540 -20.803344 17.096047
RightToeBase 26.690368 -0.000000 -0.000000
349
root 23.042029 35.831079 -23.585938 -175.969347 -1.820316 -180.578051
Spine -7.788539 3.273706 -1.990179
Head -1.519286 -6.599853 -0.469019
LeftShoulder -7.718625 -18.947283 -4.261802
LeftArm -13.713905 17.740644 -74.886676
LeftForeArm -3.443232 -0.000000 4.626758
LeftHand -1.419163 -0.000000 0.116915
LeftHandThumb1 -26.253704 0.000000 33.147579
RightShoulder -7.280617 -14.658429 7.583091
RightArm 15.812944 -17.185698 65.449023
RightForeArm -18.172640 -0.000000 16.376718
RightHand -0.695420 0.000000 1.736266
RightHandThumb1 -24.326973 -0.000000 -32.862282
LeftUpLeg -16.431230 0.628207 -4.111568
LeftLeg 22.197558 -0.000000 -0.000000
LeftFoot -26.827688 25.882870 -10.979656
LeftToeBase 16.797449 -0.000000 -0.000000
RightUpLeg -4.242009 -8.144782 4.719915
RightLeg 3.861431 -0.000000 -0.000000
RightFoot -23.144160 -20.695568 17.337878
RightToeBase 26.675967 -0.000000 -0.000000
